HIERARCHY
ROOT Hips
{
	OFFSET -3.958830 18.904000 13.208200
	CHANNELS 6 Xposition Yposition Zposition Zrotation Yrotation Xrotation 
	JOINT LHipJoint
	{
		OFFSET 0.000000 0.000000 0.000000
		CHANNELS 3 Zrotation Yrotation Xrotation
		JOINT LeftUpLeg
		{
			OFFSET 1.800000 -1.400000 0.085000
			CHANNELS 3 Zrotation Yrotation Xrotation
			JOINT LeftLeg
			{
				OFFSET 2.215000 -6.000000 0.000000
				CHANNELS 3 Zrotation Yrotation Xrotation
				JOINT LeftFoot
				{
					OFFSET 2.500000 -6.900000 0.000000
					CHANNELS 3 Zrotation Yrotation Xrotation
					JOINT LeftToeBase
					{
						OFFSET 0.200000 -0.500000 1.950000
						CHANNELS 3 Zrotation Yrotation Xrotation
						End Site
						{
							OFFSET 0.000000 0.000000 0.000000
						}
					}
				}
			}
		}
	}
	JOINT RHipJoint
	{
		OFFSET 0.000000 0.000000 0.000000
		CHANNELS 3 Zrotation Yrotation Xrotation
		JOINT RightUpLeg
		{
			OFFSET -1.800000 -1.400000 0.085000
			CHANNELS 3 Zrotation Yrotation Xrotation
			JOINT RightLeg
			{
				OFFSET -2.215000 -6.000000 0.000000
				CHANNELS 3 Zrotation Yrotation Xrotation
				JOINT RightFoot
				{
					OFFSET -2.500000 -6.900000 0.000000
					CHANNELS 3 Zrotation Yrotation Xrotation
					JOINT RightToeBase
					{
						OFFSET -0.200000 -0.500000 1.950000
						CHANNELS 3 Zrotation Yrotation Xrotation
						End Site
						{
							OFFSET 0.000000 0.000000 0.000000
						}
					}
				}
			}
		}
	}
	JOINT LowerBack
	{
		OFFSET 0.000000 0.000000 0.000000
		CHANNELS 3 Zrotation Yrotation Xrotation
		JOINT Spine
		{
			OFFSET -0.087000 1.940000 -0.288900
			CHANNELS 3 Zrotation Yrotation Xrotation
			JOINT Spine1
			{
				OFFSET 0.000000 1.950000 0.060000
				CHANNELS 3 Zrotation Yrotation Xrotation
				JOINT Neck
				{
					OFFSET 0.000000 0.000000 0.000000
					CHANNELS 3 Zrotation Yrotation Xrotation
					JOINT Neck1
					{
						OFFSET 0.000000 1.600000 0.340000
						CHANNELS 3 Zrotation Yrotation Xrotation
						JOINT Head
						{
							OFFSET 0.000000 1.667000 -0.240000
							CHANNELS 3 Zrotation Yrotation Xrotation
							End Site
							{
								OFFSET 0.000000 0.000000 0.000000
							}
						}
					}
				}
				JOINT LeftShoulder
				{
					OFFSET 0.000000 0.000000 0.000000
					CHANNELS 3 Zrotation Yrotation Xrotation
					JOINT LeftArm
					{
						OFFSET 2.700000 1.550000 -0.730000
						CHANNELS 3 Zrotation Yrotation Xrotation
						JOINT LeftForeArm
						{
							OFFSET 5.450000 0.000000 0.000000
							CHANNELS 3 Zrotation Yrotation Xrotation
							JOINT LeftHand
							{
								OFFSET 3.450000 0.000000 0.000000
								CHANNELS 3 Zrotation Yrotation Xrotation
								JOINT LeftHandIndex1
								{
									OFFSET 0.750000 0.000000 0.000000
									CHANNELS 3 Zrotation Yrotation Xrotation
									End Site
									{
										OFFSET 0.000000 0.000000 0.000000
									}
								}
							}
						}
					}
				}
				JOINT RightShoulder
				{
					OFFSET 0.000000 0.000000 0.000000
					CHANNELS 3 Zrotation Yrotation Xrotation
					JOINT RightArm
					{
						OFFSET -2.700000 1.550000 -0.730000
						CHANNELS 3 Zrotation Yrotation Xrotation
						JOINT RightForeArm
						{
							OFFSET -5.450000 0.000000 0.000000
							CHANNELS 3 Zrotation Yrotation Xrotation
							JOINT RightHand
							{
								OFFSET -3.450000 0.000000 0.000000
								CHANNELS 3 Zrotation Yrotation Xrotation
								JOINT RightHandIndex1
								{
									OFFSET -0.750000 0.000000 0.000000
									CHANNELS 3 Zrotation Yrotation Xrotation
									End Site
									{
										OFFSET 0.000000 0.000000 0.000000
									}
								}
							}
						}
					}
				}
			}
		}
	}
}
MOTION
Frames: 9
Frame Time: 0.016667
-0.727670 17.166260 -2.740820 1.453696 -4.736368 8.265926 -15.400206 11.994853 4.790969 1.035702 -7.709361 -41.141877 -7.454089 3.858649 10.505435 -1.413055 3.408876 3.633329 0.654030 0.259930 0.222390 18.202769 -10.520839 2.027620 -5.945154 2.030428 -15.527106 4.771100 -5.743213 21.653563 -0.160452 -4.279214 2.978550 0.512700 0.982550 0.555950 -3.112846 -1.706743 -7.602867 1.571394 4.996519 8.583822 -1.724638 5.938217 13.255028 -0.931638 -1.920635 -9.017145 -4.944888 0.314842 28.175657 -1.221140 -3.457460 -8.049370 6.143456 -29.613241 -1.397810 -17.948550 -51.006084 8.808323 48.448391 -34.083911 -19.299125 -4.159793 2.663853 0.474570 0.670540 -0.295680 0.546630 -4.563305 32.899378 5.966611 15.376921 35.410738 -1.205200 -39.556116 35.790215 -14.409137 1.254884 -1.705442 -0.470730 0.542900 0.041700 -0.069930 
-0.756810 17.104740 -2.732850 1.047853 -4.837448 7.342439 -15.382565 12.083160 4.740574 2.109966 -7.415175 -41.010461 -7.946288 5.200548 16.903800 -1.309595 4.123919 3.327110 0.731540 0.383440 0.240280 18.205448 -10.609770 2.070896 -4.662831 2.257671 -15.696339 3.659161 -5.728342 24.555217 -0.224578 -4.518209 2.889330 0.582760 0.984680 0.587160 -3.133059 -1.602470 -7.636752 1.914620 4.894338 8.993159 -1.674432 5.852829 14.166779 -0.881006 -1.179339 -9.029420 -3.654501 0.979391 28.843654 -1.120820 -2.655740 -8.052280 5.239733 -33.525203 -2.048944 -17.841611 -52.620394 9.096155 44.620750 -26.471827 -15.562968 -4.254885 2.802151 0.429260 0.696410 -0.274450 0.587960 -3.800814 36.285580 5.680611 15.755064 39.570010 0.425466 -39.842512 24.231623 -12.560214 1.463440 -1.915892 -0.424420 0.535690 -0.000100 -0.042170 
-0.784540 17.060190 -2.708110 0.644623 -4.673642 6.171796 -15.347982 12.159404 4.654308 3.166879 -7.017784 -39.877749 -8.763158 6.650128 22.311122 -1.209795 5.016619 2.954032 0.793420 0.467730 0.269830 18.215579 -10.701871 2.158478 -3.508415 2.770807 -16.193028 2.643299 -5.882823 28.802249 -0.334728 -4.936619 2.716643 0.635770 0.973760 0.613850 -3.190468 -1.425797 -7.745556 2.667148 4.958866 9.748897 -1.899695 6.005314 15.485727 -0.775225 -0.448196 -9.316756 -2.396744 1.231163 29.903611 -0.643820 -2.352520 -8.785240 3.781469 -36.721418 -2.279997 -19.418088 -53.746035 9.605419 43.930585 -21.750047 -14.290388 -4.295199 2.844899 0.427640 0.697860 -0.246010 0.598530 -2.601131 38.872088 6.113140 18.396486 43.025414 0.577615 -43.654268 16.126818 -12.568267 1.569535 -2.047335 -0.397230 0.541240 -0.012340 -0.036640 
-0.798850 17.014960 -2.662870 -0.019456 -3.337025 5.509160 -15.322754 12.149977 4.566113 3.854786 -6.791437 -38.869277 -8.821531 7.887187 27.191620 -1.190168 5.903990 2.587816 0.901840 0.587180 0.325780 18.235394 -10.679385 2.341639 -2.726555 3.835425 -18.048878 2.791451 -6.617707 34.494199 -0.505019 -5.675749 2.405198 0.752540 0.964880 0.623610 -3.271954 -1.272003 -7.933228 3.684891 4.802954 10.028467 -1.525022 5.753396 16.852363 -0.760430 0.400378 -9.545366 -0.883044 0.983126 30.367399 -0.187270 -2.666550 -9.760520 2.376601 -37.997248 -1.941605 -26.217650 -57.166139 14.219773 46.089838 -18.130406 -14.907562 -4.236679 2.795026 0.448660 0.697080 -0.236890 0.618560 -1.309150 39.291742 6.857454 22.496886 46.116445 0.826388 -48.908023 13.672350 -14.290489 1.485864 -2.151915 -0.410440 0.575220 -0.029720 -0.054040 
-0.806950 16.970360 -2.620770 -0.497899 -1.539608 4.707301 -15.300908 12.103597 4.427912 3.847132 -6.621271 -37.456886 -7.704160 8.726468 31.905558 -1.163034 6.629638 2.262458 1.017760 0.725370 0.409390 18.247601 -10.634404 2.661365 -2.663525 5.291384 -20.980381 3.542931 -7.929073 41.082985 -0.760690 -6.668295 2.025238 0.854900 0.909390 0.627800 -3.349780 -1.031842 -8.257028 4.232447 4.686835 11.074766 -0.927276 5.461438 18.055478 -0.280349 1.586683 -10.356522 1.304047 0.947506 31.518934 0.076890 -2.246690 -11.672630 0.373382 -36.673255 0.317559 -34.542801 -62.756845 20.996988 48.994341 -17.171058 -16.832074 -4.038286 2.609411 0.498430 0.670490 -0.184380 0.622250 -0.185655 36.914099 6.780336 28.104319 49.494691 2.297217 -53.549919 15.724086 -17.377484 1.338541 -2.134396 -0.404820 0.605630 -0.057630 -0.085500 
-0.815550 16.930490 -2.577400 -0.682898 1.056218 4.090653 -15.269419 11.973255 4.238944 3.339342 -6.595045 -36.068428 -5.749979 8.979842 35.831110 -1.070185 7.118757 2.063261 1.035160 0.730450 0.439110 18.291252 -10.530824 3.044540 -3.944016 6.677488 -24.387022 6.208987 -10.492625 46.800557 -1.050835 -7.848881 1.623142 0.839160 0.862300 0.639540 -3.489668 -0.713933 -8.560605 4.183723 4.643903 12.752407 0.604864 5.254043 19.740616 0.125782 2.216140 -13.387631 2.839354 0.557472 32.860987 0.172170 -1.943010 -12.323290 -1.333059 -32.123539 6.262019 -46.749400 -72.054621 27.737862 51.667029 -21.627504 -20.551463 -3.881323 2.434584 0.548010 0.634740 -0.141170 0.613060 1.266478 32.570893 5.986501 34.376056 52.077912 3.387548 -59.395286 22.436467 -22.842463 1.260081 -1.980267 -0.390970 0.586700 -0.065740 -0.104680 
-0.818160 16.881070 -2.551640 -0.965315 4.455686 3.619533 -15.285855 11.820039 3.945516 3.056378 -6.634448 -34.636012 -3.978448 8.651143 37.708389 -1.088221 7.273860 1.970734 1.042680 0.707870 0.501930 18.329184 -10.264527 3.385768 -6.401232 7.603967 -28.088340 10.134553 -14.343907 51.672274 -1.399907 -9.219768 1.158797 0.814340 0.790390 0.672230 -3.563731 -0.585671 -8.546481 3.972016 4.081168 12.790339 2.540351 4.259637 22.751707 0.511084 3.009460 -15.150844 4.635302 0.550167 33.030691 -0.433770 -0.767580 -13.659120 -2.229764 -28.970058 11.653292 -59.790457 -78.073263 33.568972 52.754401 -31.093048 -24.613373 -4.084519 2.444205 0.630050 0.602660 -0.084490 0.559380 2.135030 29.589045 5.134391 38.968531 52.861795 3.953273 -64.634601 30.975395 -29.595193 1.131312 -1.708081 -0.386200 0.552530 -0.045190 -0.162500 
-0.816470 16.808110 -2.504020 -1.403191 6.574463 3.035188 -15.311112 11.806199 3.593964 3.153676 -6.243249 -33.103933 -1.891820 8.147642 38.910978 -1.090835 7.321651 1.950406 1.006060 0.638830 0.530470 18.352124 -9.922427 3.746339 -9.390051 8.311717 -31.184949 14.275158 -18.575210 55.640516 -1.750987 -10.579359 0.748880 0.762020 0.743710 0.667940 -3.572102 -0.803290 -8.471419 4.370894 3.243826 12.209823 3.371312 3.115305 24.429979 0.579733 3.248761 -15.137220 5.062161 0.372739 33.690833 -1.068320 -0.144390 -14.322020 -3.601030 -28.717935 12.472888 -68.206365 -74.122090 35.816066 55.284187 -42.106918 -30.304719 -4.160563 2.427703 0.701870 0.567040 -0.050830 0.519320 3.474903 28.963341 6.259276 43.736841 52.070061 4.021759 -70.732349 40.487210 -38.359713 1.026604 -1.326740 -0.407860 0.541160 -0.028580 -0.206240 
-0.817520 16.706850 -2.453290 -1.476108 9.005383 2.986471 -15.348975 11.713678 3.296063 3.126515 -6.019832 -32.142057 -0.660687 7.697026 38.836750 -1.035800 7.149582 2.019673 1.001430 0.636670 0.501550 18.384263 -9.507784 4.141690 -13.159940 8.485025 -34.764125 18.157648 -23.478538 59.869542 -2.132424 -12.117007 0.353228 0.726950 0.721620 0.668980 -3.557418 -1.076867 -8.412252 4.168926 2.325628 11.696026 4.246796 1.868548 24.452602 0.391335 3.414689 -14.553718 5.293620 0.105520 33.577335 -0.792570 -0.267460 -13.521010 -5.791951 -27.393964 11.768965 -73.652574 -67.450157 35.769831 57.915202 -53.910391 -37.266295 -4.114470 2.321818 0.676030 0.555590 -0.055470 0.534270 6.090930 27.193785 7.025557 48.965408 50.149953 5.489559 -77.685034 50.416239 -48.792297 0.947438 -0.837935 -0.366900 0.482140 -0.053290 -0.187490 
